<svg width="169" height="83" viewBox="0 0 169 83" fill="none" xmlns="http://www.w3.org/2000/svg">
<path d="M7.40039 74.4844C4.92643 71.8477 3.10352 68.8529 1.93164 65.5C0.759766 62.1146 0.173828 58.9896 0.173828 56.125C0.173828 53.2604 0.320312 51.6491 0.613281 51.291C0.938802 50.9329 1.29688 50.6237 1.6875 50.3633C2.37109 49.9076 3.20117 49.5495 4.17773 49.2891C6.84701 56.125 11.7786 60.5195 18.9727 62.4727C21.2839 63.1237 23.6113 63.4492 25.9551 63.4492C28.3314 63.4492 30.431 63.2539 32.2539 62.8633C34.1094 62.4401 35.7207 61.7891 37.0879 60.9102C40.0501 58.957 41.5312 56.0111 41.5312 52.0723C41.5312 49.0775 40.3431 45.7409 37.9668 42.0625C36.9577 40.4349 35.8672 38.8236 34.6953 37.2285C33.5234 35.6009 32.4329 33.957 31.4238 32.2969C29.0475 28.4883 27.8594 25.2331 27.8594 22.5312C27.8594 19.7969 28.2337 17.5345 28.9824 15.7441C29.7637 13.9212 30.8216 12.2936 32.1562 10.8613C33.4909 9.39648 35.0534 8.11068 36.8438 7.00391C38.6667 5.89714 40.6361 4.9694 42.752 4.2207C46.9837 2.72331 51.4759 1.97461 56.2285 1.97461C60.7207 1.97461 64.2526 2.44661 66.8242 3.39062C69.3958 4.30208 71.2188 5.24609 72.293 6.22266C73.3997 7.19922 73.9531 8.15951 73.9531 9.10352C73.9531 10.0475 73.8066 10.8451 73.5137 11.4961C73.2207 12.1146 72.8464 12.7331 72.3906 13.3516C71.4141 14.6211 70.4538 15.5814 69.5098 16.2324C67.2637 12.6517 63.5202 10.1289 58.2793 8.66406C56.5866 8.20833 54.7962 7.98047 52.9082 7.98047C51.0527 7.98047 49.1973 8.20833 47.3418 8.66406C45.4863 9.11979 43.8587 9.77083 42.459 10.6172C39.3014 12.4401 37.7227 14.8164 37.7227 17.7461C37.7227 19.3411 38.276 20.9362 39.3828 22.5312C40.5221 24.1263 41.9219 25.7865 43.582 27.5117C45.2747 29.237 47.0977 31.0436 49.0508 32.9316C51.0039 34.8197 52.8105 36.8379 54.4707 38.9863C58.4095 43.9993 60.3789 48.9473 60.3789 53.8301C60.3789 58.6803 59.4674 62.8958 57.6445 66.4766C55.8216 70.0247 53.3639 72.987 50.2715 75.3633C44.0866 80.2135 36.2904 82.6387 26.8828 82.6387C18.9401 82.6387 12.446 79.9206 7.40039 74.4844ZM129.91 68.1367C129.943 61.2031 132.384 52.1211 137.234 40.8906C133.979 40.0117 130.805 39.0352 127.713 37.9609C124.653 36.8867 121.609 35.8939 118.582 34.9824C111.941 53.6348 104.324 66.9648 95.7305 74.9727C90.5547 79.7904 85.3138 82.1992 80.0078 82.1992C73.1393 82.1992 68.8424 78.7161 67.1172 71.75C66.5638 69.6341 66.2871 67.2578 66.2871 64.6211C66.2871 61.9518 66.6615 59.1361 67.4102 56.1738C68.1914 53.2116 69.2982 50.3307 70.7305 47.5312C72.1953 44.6992 73.9694 42.0137 76.0527 39.4746C78.1686 36.9355 80.5612 34.7057 83.2305 32.7852C89.0898 28.651 95.5189 26.584 102.518 26.584C105.61 26.584 109.191 27.0397 113.26 27.9512C118.143 17.1439 120.91 8.0944 121.561 0.802734C123.514 0.802734 124.962 1.25846 125.906 2.16992C126.655 2.88607 126.199 6.97135 124.539 14.4258C123.562 18.918 122.163 24.0286 120.34 29.7578C129.975 32.3945 136.551 34.0384 140.066 34.6895C144.949 24.5332 150.223 15.3372 155.887 7.10156C157.514 4.72526 158.979 2.72331 160.281 1.0957C160.704 0.607422 161.176 0.363281 161.697 0.363281C162.251 0.363281 162.771 0.460938 163.26 0.65625C164.106 0.949219 165.018 1.48633 165.994 2.26758C162.511 6.62956 158.426 14.556 153.738 26.0469C152.339 29.3997 151.085 32.6875 149.979 35.9102C151.215 35.9753 152.452 36.0078 153.689 36.0078C154.926 36.0078 156.18 35.959 157.449 35.8613C157.254 38.498 156.57 40.5651 155.398 42.0625C154.78 42.8112 153.755 43.1855 152.322 43.1855C150.923 43.1855 149.393 43.0879 147.732 42.8926C146.365 47.6126 145.682 50.8678 145.682 52.6582C145.682 54.416 145.73 55.832 145.828 56.9062C145.958 57.9479 146.219 58.8919 146.609 59.7383C147.423 61.5938 148.839 62.5215 150.857 62.5215C154.536 62.5215 158.393 60.3893 162.43 56.125C163.699 54.8229 164.855 53.3906 165.896 51.8281C167.361 51.7305 168.094 52.3327 168.094 53.6348C168.094 54.9694 167.28 56.9062 165.652 59.4453C164.057 61.9844 162.527 64.1654 161.062 65.9883C159.598 67.8112 158.019 69.569 156.326 71.2617C154.633 72.9544 152.908 74.4518 151.15 75.7539C147.309 78.651 144.005 80.0996 141.238 80.0996C133.686 80.0996 129.91 76.112 129.91 68.1367ZM79.373 52.1211C79.373 58.599 81.5378 61.8379 85.8672 61.8379C90.3594 61.8379 95.9258 57.0039 102.566 47.3359C105.529 43.0065 108.296 38.2376 110.867 33.0293C108.393 32.5085 105.496 32.248 102.176 32.248C98.888 32.248 95.7305 32.8665 92.7031 34.1035C89.6758 35.3079 87.1693 36.8542 85.1836 38.7422C81.3099 42.4857 79.373 46.9453 79.373 52.1211Z" fill="black"/>
</svg>
